# xmcd
#
# Track frame offsets:
#	150
#	17877
#	41890
#	55627
#	74712
#	90925
#	105482
#	121645
#	138025
#	156922
#	172337
#	186285
#	199204
#	216145
#	233152
#	253160
#	271755
#	291515
#	309040
#
# Disc length: 4328 seconds
#
# Revision: 4
# Processed by: cddbd v1.5.2PL0 Copyright (c) Steve Scherf et al.
# Submitted via: EZCDAudioConverter 9.0.5.1
#
DISCID=1210e613
DTITLE=Various Artist - happy drive - Cheerful Music Navigation (Japan WPCR-12291) (EZ-9.0
DTITLE=5-WAV)
DYEAR=2006
DGENRE=Contemporary Pop
TTITLE0=Frankie Goes To Hollywood - Relax
TTITLE1=Wham! - Freedom
TTITLE2=AiMEE - Lookin' For Love In You
TTITLE3=Cranberries - Dreams
TTITLE4=Des'ree - Life
TTITLE5=The Cardigans - Lovefool
TTITLE6=BONNIE PINK - I'm In The Mood For Dancing
TTITLE7=Bananarama - Venus
TTITLE8=Toni Basil - Mickey
TTITLE9=Inner Circle - Games People Play
TTITLE10=The Wailing Souls - The Tide Is High
TTITLE11=Jigsaw - Sky High
TTITLE12=New Order - Krafty
TTITLE13=The Pretenders - Don't Get Me Wrong
TTITLE14=Yes - Owner Of A Lonely Heart
TTITLE15=Simply Red - Stars
TTITLE16=Matt Bianco - What A Fool Believes
TTITLE17=Chicago - Saturday In The Park
TTITLE18=Sixpence None The Richer - Kiss Me
EXTD=
EXTT0=
EXTT1=
EXTT2=
EXTT3=
EXTT4=
EXTT5=
EXTT6=
EXTT7=
EXTT8=
EXTT9=
EXTT10=
EXTT11=
EXTT12=
EXTT13=
EXTT14=
EXTT15=
EXTT16=
EXTT17=
EXTT18=
PLAYORDER=
